Coordinates
version=1
nRows=11
nColumns=40
inDegrees=yes

Units are S.I. units (second, meters, Newtons, ...)
Angles are in degrees.

endheader
time	pelvis_tilt	pelvis_list	pelvis_rotation	pelvis_tx	pelvis_ty	pelvis_tz	hip_flexion_r	hip_adduction_r	hip_rotation_r	knee_angle_r	knee_angle_r_beta	ankle_angle_r	subtalar_angle_r	mtp_angle_r	hip_flexion_l	hip_adduction_l	hip_rotation_l	knee_angle_l	knee_angle_l_beta	ankle_angle_l	subtalar_angle_l	mtp_angle_l	lumbar_extension	lumbar_bending	lumbar_rotation	arm_flex_r	arm_add_r	arm_rot_r	elbow_flex_r	pro_sup_r	wrist_flex_r	wrist_dev_r	arm_flex_l	arm_add_l	arm_rot_l	elbow_flex_l	pro_sup_l	wrist_flex_l	wrist_dev_l
      0.00000000	     -3.27856072	     -0.07961525	      6.07702239	     -0.97570701	      0.88543731	     -1.02877803	     16.26781366	     -3.98612593	    -11.00187978	    -61.87262769	     -1.07988107	     -5.43778055	    -14.65503933	     19.20572973	     18.82857379	      2.22825099	     10.16724921	    -30.24544504	     -0.52788260	      9.25171562	      6.75753400	      1.14221573	     -3.44141045	     -5.26361289	     -4.26517880	     -3.14384276	     -8.43479207	     -8.53374538	     26.00093341	     89.95437384	      0.00000000	      0.00000000	      3.10428131	     11.84864534	     18.98590457	     27.68282630	     89.95437384	      0.00000000	      0.00000000
      0.01000000	     -3.06771960	     -0.15627943	      6.25504759	     -0.96783246	      0.88645129	     -1.03083579	     17.15556543	     -4.01469699	    -11.53772059	    -62.07233385	     -1.08336660	     -4.20222181	    -15.31950683	     18.99806120	     17.85180327	      2.23514411	     10.13051261	    -29.96082154	     -0.52291498	      9.63898114	      6.52270571	      1.08179302	     -3.68890979	     -5.16692563	     -4.78000060	     -3.27758499	     -8.36179025	     -8.63517603	     25.50364055	     89.95437384	      0.00000000	      0.00000000	      3.58763867	     12.06581122	     19.14963468	     27.96998884	     89.95437384	      0.00000000	      0.00000000
      0.02000000	     -3.04029707	     -0.31948983	      6.36388229	     -0.96082107	      0.88714091	     -1.03273609	     18.37873064	     -3.98535069	    -12.06861585	    -62.14010021	     -1.08454935	     -3.37459944	    -15.52139713	     18.70855957	     17.19245413	      2.35693065	     10.26325063	    -29.70419001	     -0.51843592	      9.79778458	      6.38525841	      1.05064721	     -3.83159077	     -4.98898979	     -5.13457715	     -3.49655377	     -8.35579290	     -8.70118273	     25.29283457	     89.95437384	      0.00000000	      0.00000000	      4.15085046	     12.25875586	     19.17381631	     28.36367896	     89.95437384	      0.00000000	      0.00000000
      0.03000000	     -2.96865382	     -0.36795820	      6.54664219	     -0.95323614	      0.88790360	     -1.03462596	     19.34547401	     -3.99920312	    -12.56529933	    -61.88832445	     -1.08015503	     -1.91761698	    -16.02632712	     18.50433010	     16.41849441	      2.32075686	     10.18399581	    -29.42690618	     -0.51359640	      9.97239793	      6.05999785	      0.98423559	     -3.95646789	     -4.94969896	     -5.59227062	     -3.69740462	     -8.22492511	     -9.05169506	     24.91807097	     89.95437384	      0.00000000	      0.00000000	      4.61239169	     12.46478719	     19.33447645	     28.81768283	     89.95437384	      0.00000000	      0.00000000
      0.04000000	     -2.85721766	     -0.45740994	      6.68996520	     -0.94568354	      0.88862734	     -1.03648122	     20.26091815	     -4.02407355	    -13.10935515	    -61.44193204	     -1.07236401	     -0.66076634	    -16.35541144	     18.41447219	     15.60166728	      2.34727463	     10.18622108	    -29.12855795	     -0.50838924	     10.16247336	      5.77022991	      0.91396337	     -4.11477092	     -4.83482615	     -6.00099086	     -3.89901995	     -8.13414903	     -9.39249158	     24.64209711	     89.95437384	      0.00000000	      0.00000000	      5.06080254	     12.62181961	     19.57129487	     29.30848807	     89.95437384	      0.00000000	      0.00000000
      0.05000000	     -2.87585429	     -0.52313439	      6.75931524	     -0.93804618	      0.88904496	     -1.03821648	     21.32461355	     -4.09385456	    -13.62428826	    -60.80276552	     -1.06120845	     -0.18682858	    -16.38643433	     18.23598125	     14.96912525	      2.39068526	     10.42370092	    -28.93816342	     -0.50506623	     10.31637797	      5.67254843	      0.87909032	     -4.08111968	     -4.76117576	     -6.29565664	     -4.19846719	     -8.10761801	     -9.48628008	     24.47020061	     89.95437384	      0.00000000	      0.00000000	      5.48871947	     12.81085881	     19.61903200	     29.75176341	     89.95437384	      0.00000000	      0.00000000
      0.06000000	     -2.67906182	     -0.66759883	      6.89970127	     -0.93037083	      0.88973626	     -1.03975534	     21.98659650	     -3.88299551	    -14.03293736	    -59.81741048	     -1.04401076	      0.98816134	    -16.93582946	     18.30174853	     14.03459232	      2.46641215	     10.21051839	    -28.59751228	     -0.49912075	     10.74633211	      5.38713463	      0.78142363	     -4.31384630	     -4.58184080	     -6.69667182	     -4.35693698	     -7.98286975	     -9.93468359	     24.21769541	     89.95437384	      0.00000000	      0.00000000	      5.86592688	     12.95187107	     19.94308968	     30.41998891	     89.95437384	      0.00000000	      0.00000000
      0.07000000	     -2.71679464	     -0.68455934	      6.96301201	     -0.92267365	      0.88995074	     -1.04133784	     22.94261326	     -3.98334228	    -14.50885438	    -58.79575605	     -1.02617953	      1.42972407	    -16.90306866	     18.18004021	     13.40753609	      2.47412572	     10.48189403	    -28.40818013	     -0.49581628	     10.86161736	      5.27765435	      0.74623699	     -4.24635764	     -4.56448949	     -6.95478878	     -4.69438224	     -7.95370231	    -10.07088933	     24.13500948	     89.95437384	      0.00000000	      0.00000000	      6.24096302	     13.10485742	     20.04510774	     30.95220120	     89.95437384	      0.00000000	      0.00000000
      0.08000000	     -2.06532707	     -1.01843124	      7.04816021	     -0.91441413	      0.89118789	     -1.04236309	     22.87768120	     -3.38955935	    -14.89733454	    -57.18066726	     -0.99799091	      2.55061121	    -17.09023387	     20.73063845	     11.93415310	      3.05337767	     10.87166797	    -28.03662177	     -0.48933136	     10.83575969	      3.92749526	      0.17209283	     -4.94952881	     -4.12175752	     -7.23752627	     -4.85111549	     -7.81366619	    -10.70013509	     23.97974762	     89.95437384	      0.00000000	      0.00000000	      6.60247401	     13.15331126	     20.58118000	     31.73309215	     89.95437384	      0.00000000	      0.00000000
      0.09000000	     -2.12523720	     -1.01815866	      7.10409014	     -0.90676841	      0.89119697	     -1.04372838	     23.74399387	     -3.38250414	    -15.15600317	    -55.77617748	     -0.97347794	      3.21974023	    -17.18196416	     20.58644481	     11.26342661	      2.99970625	     10.93191935	    -27.72880434	     -0.48395893	     11.05274752	      3.79201047	      0.10728625	     -4.89808197	     -4.11986262	     -7.46035880	     -5.14774892	     -7.75170886	    -10.92858684	     23.93966088	     89.95437384	      0.00000000	      0.00000000	      6.92462148	     13.26606092	     20.78032162	     32.43714610	     89.95437384	      0.00000000	      0.00000000
      0.10000000	     -1.97634048	     -1.10809870	      7.17129994	     -0.89901388	      0.89152735	     -1.04498380	     24.19142003	     -3.25713463	    -15.51303362	    -54.03903001	     -0.94315900	      3.77415771	    -17.08285760	     20.62316010	     10.36986856	      3.15354569	     11.25395427	    -27.41641165	     -0.47850665	     11.32206497	      3.53608547	     -0.01852174	     -5.08710478	     -3.97675785	     -7.67633911	     -5.40560476	     -7.66308040	    -11.40377159	     23.92707062	     89.95437384	      0.00000000	      0.00000000	      7.28570368	     13.33961757	     21.04144246	     33.13562199	     89.95437384	      0.00000000	      0.00000000
